<?xml version="1.0" encoding="UTF-8" standalone="no"?>
<!DOCTYPE svg PUBLIC "-//W3C//DTD SVG 1.1//EN"
 "http://www.w3.org/Graphics/SVG/1.1/DTD/svg11.dtd">
<!-- Generated by graphviz version 2.40.1 (20161225.0304)
 -->
<!-- Title: state transitions Pages: 1 -->
<svg width="1082pt" height="388pt"
 viewBox="0.00 0.00 1082.00 388.00" xmlns="http://www.w3.org/2000/svg" xmlns:xlink="http://www.w3.org/1999/xlink">
<g id="graph0" class="graph" transform="scale(1 1) rotate(0) translate(4 384)">
<title>state transitions</title>
<polygon fill="#ffffff" stroke="transparent" points="-4,4 -4,-384 1078,-384 1078,4 -4,4"/>
<g id="clust1" class="cluster state regular">
<title>cluster_next_state</title>
<path fill="none" stroke="#000000" stroke-width="2" d="M20,-8C20,-8 1054,-8 1054,-8 1060,-8 1066,-14 1066,-20 1066,-20 1066,-360 1066,-360 1066,-366 1060,-372 1054,-372 1054,-372 20,-372 20,-372 14,-372 8,-366 8,-360 8,-360 8,-20 8,-20 8,-14 14,-8 20,-8"/>
<text text-anchor="start" x="509.8208" y="-353.2" font-family="Helvetica,sans-Serif" font-size="12.00" fill="#000000">next_state</text>
</g>
<!-- next_state -->
<!-- none_state -->
<g id="node2" class="node state regular">
<title>none_state</title>
<polygon fill="#ffffff" fill-opacity="0.003922" stroke="transparent" stroke-width="2" points="741.5,-334 660.5,-334 660.5,-298 741.5,-298 741.5,-334"/>
<text text-anchor="start" x="671.8174" y="-312.2" font-family="Helvetica,sans-Serif" font-size="12.00" fill="#000000">none_state</text>
<path fill="none" stroke="#000000" stroke-width="2" d="M672.8333,-299C672.8333,-299 729.1667,-299 729.1667,-299 734.8333,-299 740.5,-304.6667 740.5,-310.3333 740.5,-310.3333 740.5,-321.6667 740.5,-321.6667 740.5,-327.3333 734.8333,-333 729.1667,-333 729.1667,-333 672.8333,-333 672.8333,-333 667.1667,-333 661.5,-327.3333 661.5,-321.6667 661.5,-321.6667 661.5,-310.3333 661.5,-310.3333 661.5,-304.6667 667.1667,-299 672.8333,-299"/>
</g>
<!-- upping_state -->
<g id="node3" class="node state regular">
<title>upping_state</title>
<polygon fill="#ffffff" fill-opacity="0.003922" stroke="transparent" stroke-width="2" points="363,-240 273,-240 273,-204 363,-204 363,-240"/>
<text text-anchor="start" x="283.6506" y="-218.2" font-family="Helvetica,sans-Serif" font-size="12.00" fill="#000000">upping_state</text>
<path fill="none" stroke="#000000" stroke-width="2" d="M285.3333,-205C285.3333,-205 350.6667,-205 350.6667,-205 356.3333,-205 362,-210.6667 362,-216.3333 362,-216.3333 362,-227.6667 362,-227.6667 362,-233.3333 356.3333,-239 350.6667,-239 350.6667,-239 285.3333,-239 285.3333,-239 279.6667,-239 274,-233.3333 274,-227.6667 274,-227.6667 274,-216.3333 274,-216.3333 274,-210.6667 279.6667,-205 285.3333,-205"/>
</g>
<!-- none_state&#45;&gt;upping_state -->
<g id="edge1" class="edge transition">
<title>none_state&#45;&gt;upping_state</title>
<path fill="none" stroke="#000000" d="M660.3744,-311.4787C617.0409,-306.1632 546.6054,-296.1037 487.182,-281 448.0807,-271.0616 405.1746,-256.0496 372.3552,-243.6558"/>
<polygon fill="#000000" stroke="#000000" points="373.5352,-240.36 362.9444,-240.0695 371.0425,-246.9012 373.5352,-240.36"/>
<text text-anchor="start" x="487" y="-272" font-family="Helvetica,sans-Serif" font-size="10.00" fill="#000000">highest_dest_s &gt; unsigned(floor) &#160;&#160;</text>
<text text-anchor="start" x="487" y="-260" font-family="Helvetica,sans-Serif" font-size="10.00" fill="#000000">none_is_pressed_s = &#39;0&#39; and door_open = &#39;0&#39; &#160;&#160;</text>
</g>
<!-- downing_state -->
<g id="node4" class="node state regular">
<title>downing_state</title>
<polygon fill="#ffffff" fill-opacity="0.003922" stroke="transparent" stroke-width="2" points="622.5,-52 523.5,-52 523.5,-16 622.5,-16 622.5,-52"/>
<text text-anchor="start" x="534.8192" y="-30.2" font-family="Helvetica,sans-Serif" font-size="12.00" fill="#000000">downing_state</text>
<path fill="none" stroke="#000000" stroke-width="2" d="M535.8333,-17C535.8333,-17 610.1667,-17 610.1667,-17 615.8333,-17 621.5,-22.6667 621.5,-28.3333 621.5,-28.3333 621.5,-39.6667 621.5,-39.6667 621.5,-45.3333 615.8333,-51 610.1667,-51 610.1667,-51 535.8333,-51 535.8333,-51 530.1667,-51 524.5,-45.3333 524.5,-39.6667 524.5,-39.6667 524.5,-28.3333 524.5,-28.3333 524.5,-22.6667 530.1667,-17 535.8333,-17"/>
</g>
<!-- none_state&#45;&gt;downing_state -->
<g id="edge2" class="edge transition">
<title>none_state&#45;&gt;downing_state</title>
<path fill="none" stroke="#000000" d="M741.7149,-311.234C785.8311,-304.9056 850,-291.7846 850,-269 850,-269 850,-269 850,-81 850,-59.1318 714.0729,-44.8378 632.6547,-38.2375"/>
<polygon fill="#000000" stroke="#000000" points="632.7678,-34.7355 622.522,-37.4328 632.2136,-41.7136 632.7678,-34.7355"/>
<text text-anchor="start" x="850" y="-178" font-family="Helvetica,sans-Serif" font-size="10.00" fill="#000000">lowest_dest_s &lt; unsigned(floor) &#160;&#160;</text>
<text text-anchor="start" x="850" y="-166" font-family="Helvetica,sans-Serif" font-size="10.00" fill="#000000">none_is_pressed_s = &#39;0&#39; and door_open = &#39;0&#39; &#160;&#160;</text>
</g>
<!-- reached_a_floor -->
<g id="node5" class="node state regular">
<title>reached_a_floor</title>
<polygon fill="#ffffff" fill-opacity="0.003922" stroke="transparent" stroke-width="2" points="553,-146 445,-146 445,-110 553,-110 553,-146"/>
<text text-anchor="start" x="455.6524" y="-124.2" font-family="Helvetica,sans-Serif" font-size="12.00" fill="#000000">reached_a_floor</text>
<path fill="none" stroke="#000000" stroke-width="2" d="M457.3333,-111C457.3333,-111 540.6667,-111 540.6667,-111 546.3333,-111 552,-116.6667 552,-122.3333 552,-122.3333 552,-133.6667 552,-133.6667 552,-139.3333 546.3333,-145 540.6667,-145 540.6667,-145 457.3333,-145 457.3333,-145 451.6667,-145 446,-139.3333 446,-133.6667 446,-133.6667 446,-122.3333 446,-122.3333 446,-116.6667 451.6667,-111 457.3333,-111"/>
</g>
<!-- upping_state&#45;&gt;reached_a_floor -->
<g id="edge3" class="edge transition">
<title>upping_state&#45;&gt;reached_a_floor</title>
<path fill="none" stroke="#000000" d="M272.8716,-219.1989C201.41,-214.2984 68.8056,-203.1319 54.676,-187 47.648,-178.976 47.4357,-170.833 54.676,-163 67.371,-149.2657 314.3849,-136.3109 434.4991,-130.7938"/>
<polygon fill="#000000" stroke="#000000" points="434.8388,-134.2821 444.6692,-130.3306 434.5202,-127.2893 434.8388,-134.2821"/>
<text text-anchor="start" x="54" y="-172" font-family="Helvetica,sans-Serif" font-size="10.00" fill="#000000">std_logic_vector(highest_dest_s) = floor &#160;&#160;</text>
</g>
<!-- upping_state&#45;&gt;reached_a_floor -->
<g id="edge4" class="edge transition">
<title>upping_state&#45;&gt;reached_a_floor</title>
<path fill="none" stroke="#000000" d="M296.1909,-203.8786C284.0403,-191.6121 273.2981,-175.4392 283.877,-163 293.6677,-151.4877 375.0168,-140.7134 434.7987,-134.2395"/>
<polygon fill="#000000" stroke="#000000" points="435.3663,-137.6989 444.9395,-133.1598 434.6251,-130.7383 435.3663,-137.6989"/>
<text text-anchor="start" x="283" y="-172" font-family="Helvetica,sans-Serif" font-size="10.00" fill="#000000">buttons_r(to_integer(unsigned(floor))) = &#39;0&#39; or ups_r(to_integer(unsigned(floor))) = &#39;0&#39; &#160;&#160;</text>
</g>
<!-- downing_state&#45;&gt;reached_a_floor -->
<g id="edge5" class="edge transition">
<title>downing_state&#45;&gt;reached_a_floor</title>
<path fill="none" stroke="#000000" d="M594.6412,-52.1661C606.2688,-64.1575 616.4555,-79.9962 607,-93 601.0979,-101.117 582.8013,-108.3146 562.9052,-114.0399"/>
<polygon fill="#000000" stroke="#000000" points="561.7813,-110.7186 553.0568,-116.7298 563.6257,-117.4713 561.7813,-110.7186"/>
<text text-anchor="start" x="610" y="-78" font-family="Helvetica,sans-Serif" font-size="10.00" fill="#000000">std_logic_vector(lowest_dest_s) = floor &#160;&#160;</text>
</g>
<!-- downing_state&#45;&gt;reached_a_floor -->
<g id="edge6" class="edge transition">
<title>downing_state&#45;&gt;reached_a_floor</title>
<path fill="none" stroke="#000000" d="M523.2444,-35.7073C400.6982,-40.1531 93.1274,-52.8713 78.099,-69 70.8274,-76.804 70.8758,-85.1512 78.099,-93 101.723,-118.67 322.8275,-125.5164 434.7455,-127.3397"/>
<polygon fill="#000000" stroke="#000000" points="434.8459,-130.8416 444.8987,-127.4962 434.9539,-123.8424 434.8459,-130.8416"/>
<text text-anchor="start" x="78" y="-78" font-family="Helvetica,sans-Serif" font-size="10.00" fill="#000000">buttons_r(to_integer(unsigned(floor))) = &#39;0&#39; or downs_r(to_integer(unsigned(floor))) = &#39;0&#39; &#160;&#160;</text>
</g>
<!-- reached_a_floor&#45;&gt;none_state -->
<g id="edge9" class="edge transition">
<title>reached_a_floor&#45;&gt;none_state</title>
<path fill="none" stroke="#000000" d="M553.1709,-131.2399C627.8887,-136.2698 754.9987,-147.0665 769,-163 776.041,-171.0126 775.2332,-178.3441 769,-187 755.074,-206.3389 733.4994,-185.7736 718.146,-204 698.7165,-227.0652 696.4093,-262.6732 697.6846,-287.5284"/>
<polygon fill="#000000" stroke="#000000" points="694.2146,-288.066 698.4422,-297.7808 701.1956,-287.55 694.2146,-288.066"/>
<text text-anchor="start" x="718" y="-231" font-family="Helvetica,sans-Serif" font-size="10.00" fill="#000000">door_open = &#39;1&#39; &#160;&#160;</text>
<text text-anchor="start" x="718" y="-219" font-family="Helvetica,sans-Serif" font-size="10.00" fill="#000000">not (came_from_r = up) &#160;&#160;</text>
<text text-anchor="start" x="718" y="-207" font-family="Helvetica,sans-Serif" font-size="10.00" fill="#000000">not (came_from_r = down) &#160;&#160;</text>
</g>
<!-- reached_a_floor&#45;&gt;upping_state -->
<g id="edge7" class="edge transition">
<title>reached_a_floor&#45;&gt;upping_state</title>
<path fill="none" stroke="#000000" d="M553.1355,-130.2574C614.4038,-134.702 701.3743,-147.8894 666,-187 646.7627,-208.2692 466.4021,-217.2072 373.2,-220.431"/>
<polygon fill="#000000" stroke="#000000" points="372.9759,-216.9365 363.0989,-220.7698 373.2106,-223.9326 372.9759,-216.9365"/>
<text text-anchor="start" x="674" y="-178" font-family="Helvetica,sans-Serif" font-size="10.00" fill="#000000">came_from_r = up &#160;&#160;</text>
<text text-anchor="start" x="674" y="-166" font-family="Helvetica,sans-Serif" font-size="10.00" fill="#000000">door_open = &#39;1&#39; &#160;&#160;</text>
</g>
<!-- reached_a_floor&#45;&gt;downing_state -->
<g id="edge8" class="edge transition">
<title>reached_a_floor&#45;&gt;downing_state</title>
<path fill="none" stroke="#000000" d="M494.4147,-109.8179C492.3448,-97.37 491.8288,-81.0079 499.48,-69 503.3969,-62.8527 508.7186,-57.7619 514.7202,-53.5513"/>
<polygon fill="#000000" stroke="#000000" points="516.5466,-56.537 523.2576,-48.3386 512.8987,-50.5626 516.5466,-56.537"/>
<text text-anchor="start" x="499" y="-84" font-family="Helvetica,sans-Serif" font-size="10.00" fill="#000000">came_from_r = down &#160;&#160;</text>
<text text-anchor="start" x="499" y="-72" font-family="Helvetica,sans-Serif" font-size="10.00" fill="#000000">door_open = &#39;1&#39; &#160;&#160;</text>
</g>
</g>
</svg>
