<?xml version="1.0" encoding="UTF-8" standalone="no"?>
<!DOCTYPE svg PUBLIC "-//W3C//DTD SVG 1.1//EN"
 "http://www.w3.org/Graphics/SVG/1.1/DTD/svg11.dtd">
<!-- Generated by graphviz version 2.40.1 (20161225.0304)
 -->
<!-- Title: state transitions Pages: 1 -->
<svg width="1172pt" height="388pt"
 viewBox="0.00 0.00 1171.82 388.00" xmlns="http://www.w3.org/2000/svg" xmlns:xlink="http://www.w3.org/1999/xlink">
<g id="graph0" class="graph" transform="scale(1 1) rotate(0) translate(4 384)">
<title>state transitions</title>
<polygon fill="#ffffff" stroke="transparent" points="-4,4 -4,-384 1167.818,-384 1167.818,4 -4,4"/>
<g id="clust1" class="cluster state regular">
<title>cluster_next_state</title>
<path fill="none" stroke="#000000" stroke-width="2" d="M20,-8C20,-8 1078,-8 1078,-8 1084,-8 1090,-14 1090,-20 1090,-20 1090,-360 1090,-360 1090,-366 1084,-372 1078,-372 1078,-372 20,-372 20,-372 14,-372 8,-366 8,-360 8,-360 8,-20 8,-20 8,-14 14,-8 20,-8"/>
<text text-anchor="start" x="521.8208" y="-353.2" font-family="Helvetica,sans-Serif" font-size="12.00" fill="#000000">next_state</text>
</g>
<!-- next_state -->
<!-- none_state -->
<g id="node2" class="node state regular">
<title>none_state</title>
<polygon fill="#ffffff" fill-opacity="0.003922" stroke="transparent" stroke-width="2" points="743.5,-334 662.5,-334 662.5,-298 743.5,-298 743.5,-334"/>
<text text-anchor="start" x="673.8174" y="-312.2" font-family="Helvetica,sans-Serif" font-size="12.00" fill="#000000">none_state</text>
<path fill="none" stroke="#000000" stroke-width="2" d="M674.8333,-299C674.8333,-299 731.1667,-299 731.1667,-299 736.8333,-299 742.5,-304.6667 742.5,-310.3333 742.5,-310.3333 742.5,-321.6667 742.5,-321.6667 742.5,-327.3333 736.8333,-333 731.1667,-333 731.1667,-333 674.8333,-333 674.8333,-333 669.1667,-333 663.5,-327.3333 663.5,-321.6667 663.5,-321.6667 663.5,-310.3333 663.5,-310.3333 663.5,-304.6667 669.1667,-299 674.8333,-299"/>
</g>
<!-- upping_state -->
<g id="node3" class="node state regular">
<title>upping_state</title>
<polygon fill="#ffffff" fill-opacity="0.003922" stroke="transparent" stroke-width="2" points="450,-240 360,-240 360,-204 450,-204 450,-240"/>
<text text-anchor="start" x="370.6506" y="-218.2" font-family="Helvetica,sans-Serif" font-size="12.00" fill="#000000">upping_state</text>
<path fill="none" stroke="#000000" stroke-width="2" d="M372.3333,-205C372.3333,-205 437.6667,-205 437.6667,-205 443.3333,-205 449,-210.6667 449,-216.3333 449,-216.3333 449,-227.6667 449,-227.6667 449,-233.3333 443.3333,-239 437.6667,-239 437.6667,-239 372.3333,-239 372.3333,-239 366.6667,-239 361,-233.3333 361,-227.6667 361,-227.6667 361,-216.3333 361,-216.3333 361,-210.6667 366.6667,-205 372.3333,-205"/>
</g>
<!-- none_state&#45;&gt;upping_state -->
<g id="edge1" class="edge transition">
<title>none_state&#45;&gt;upping_state</title>
<path fill="none" stroke="#000000" d="M662.2545,-314.8032C576.348,-311.8592 382.8985,-302.8515 363.182,-281 353.7298,-270.5243 360.6356,-257.8759 371.3588,-246.9812"/>
<polygon fill="#000000" stroke="#000000" points="373.8325,-249.4613 378.8232,-240.1155 369.0937,-244.3093 373.8325,-249.4613"/>
<text text-anchor="start" x="363" y="-272" font-family="Helvetica,sans-Serif" font-size="10.00" fill="#000000">highest_dest_s &gt; unsigned(floor) &#160;&#160;</text>
<text text-anchor="start" x="363" y="-260" font-family="Helvetica,sans-Serif" font-size="10.00" fill="#000000">none_is_pressed_s = &#39;0&#39; and door_open = &#39;0&#39; &#160;&#160;</text>
</g>
<!-- downing_state -->
<g id="node4" class="node state regular">
<title>downing_state</title>
<polygon fill="#ffffff" fill-opacity="0.003922" stroke="transparent" stroke-width="2" points="646.5,-52 547.5,-52 547.5,-16 646.5,-16 646.5,-52"/>
<text text-anchor="start" x="558.8192" y="-30.2" font-family="Helvetica,sans-Serif" font-size="12.00" fill="#000000">downing_state</text>
<path fill="none" stroke="#000000" stroke-width="2" d="M559.8333,-17C559.8333,-17 634.1667,-17 634.1667,-17 639.8333,-17 645.5,-22.6667 645.5,-28.3333 645.5,-28.3333 645.5,-39.6667 645.5,-39.6667 645.5,-45.3333 639.8333,-51 634.1667,-51 634.1667,-51 559.8333,-51 559.8333,-51 554.1667,-51 548.5,-45.3333 548.5,-39.6667 548.5,-39.6667 548.5,-28.3333 548.5,-28.3333 548.5,-22.6667 554.1667,-17 559.8333,-17"/>
</g>
<!-- none_state&#45;&gt;downing_state -->
<g id="edge2" class="edge transition">
<title>none_state&#45;&gt;downing_state</title>
<path fill="none" stroke="#000000" d="M743.6904,-310.079C809.55,-299.554 934.7047,-275.3224 960,-240 1006.632,-174.8831 874,-154.897 874,-154.5 874,-154.5 874,-154.5 874,-81 874,-59.1318 738.0729,-44.8378 656.6547,-38.2375"/>
<polygon fill="#000000" stroke="#000000" points="656.7678,-34.7355 646.522,-37.4328 656.2136,-41.7136 656.7678,-34.7355"/>
<text text-anchor="start" x="956" y="-178" font-family="Helvetica,sans-Serif" font-size="10.00" fill="#000000">lowest_dest_s &lt; unsigned(floor) &#160;&#160;</text>
<text text-anchor="start" x="956" y="-166" font-family="Helvetica,sans-Serif" font-size="10.00" fill="#000000">none_is_pressed_s = &#39;0&#39; and door_open = &#39;0&#39; &#160;&#160;</text>
</g>
<!-- reached_a_floor -->
<g id="node5" class="node state regular">
<title>reached_a_floor</title>
<polygon fill="#ffffff" fill-opacity="0.003922" stroke="transparent" stroke-width="2" points="614,-146 506,-146 506,-110 614,-110 614,-146"/>
<text text-anchor="start" x="516.6524" y="-124.2" font-family="Helvetica,sans-Serif" font-size="12.00" fill="#000000">reached_a_floor</text>
<path fill="none" stroke="#000000" stroke-width="2" d="M518.3333,-111C518.3333,-111 601.6667,-111 601.6667,-111 607.3333,-111 613,-116.6667 613,-122.3333 613,-122.3333 613,-133.6667 613,-133.6667 613,-139.3333 607.3333,-145 601.6667,-145 601.6667,-145 518.3333,-145 518.3333,-145 512.6667,-145 507,-139.3333 507,-133.6667 507,-133.6667 507,-122.3333 507,-122.3333 507,-116.6667 512.6667,-111 518.3333,-111"/>
</g>
<!-- none_state&#45;&gt;reached_a_floor -->
<g id="edge3" class="edge transition">
<title>none_state&#45;&gt;reached_a_floor</title>
<path fill="none" stroke="#000000" d="M663.5963,-297.9798C621.1143,-276.1834 563.4438,-238.1588 594.182,-204 618.2202,-177.2868 730.9618,-213.7132 755,-187 762.135,-179.071 761.8439,-171.1816 755,-163 738.4832,-143.2547 674.6124,-134.6339 624.412,-130.8791"/>
<polygon fill="#000000" stroke="#000000" points="624.4705,-127.3748 614.2511,-130.1703 623.9833,-134.3578 624.4705,-127.3748"/>
<text text-anchor="start" x="594" y="-231" font-family="Helvetica,sans-Serif" font-size="10.00" fill="#000000">none_is_pressed_s = &#39;0&#39; and door_open = &#39;0&#39; &#160;&#160;</text>
<text text-anchor="start" x="594" y="-219" font-family="Helvetica,sans-Serif" font-size="10.00" fill="#000000">not (highest_dest_s &gt; unsigned(floor)) &#160;&#160;</text>
<text text-anchor="start" x="594" y="-207" font-family="Helvetica,sans-Serif" font-size="10.00" fill="#000000">not (lowest_dest_s &lt; unsigned(floor)) &#160;&#160;</text>
</g>
<!-- upping_state&#45;&gt;reached_a_floor -->
<g id="edge4" class="edge transition">
<title>upping_state&#45;&gt;reached_a_floor</title>
<path fill="none" stroke="#000000" d="M450.2223,-217.7014C490.2715,-212.8644 544.4294,-203.446 558,-187 564.947,-178.581 566.46,-166.9558 565.858,-156.2492"/>
<polygon fill="#000000" stroke="#000000" points="569.2987,-155.5335 564.6739,-146.0014 562.3449,-156.3371 569.2987,-155.5335"/>
<text text-anchor="start" x="565" y="-172" font-family="Helvetica,sans-Serif" font-size="10.00" fill="#000000">std_logic_vector(highest_dest_s) = floor &#160;&#160;</text>
</g>
<!-- upping_state&#45;&gt;reached_a_floor -->
<g id="edge5" class="edge transition">
<title>upping_state&#45;&gt;reached_a_floor</title>
<path fill="none" stroke="#000000" d="M359.9712,-220.8018C270.0245,-217.9419 74.9884,-209.222 54.877,-187 47.7195,-179.0913 47.5999,-170.7988 54.877,-163 69.7084,-147.1054 363.312,-134.874 495.9397,-130.1372"/>
<polygon fill="#000000" stroke="#000000" points="496.0999,-133.6338 505.9698,-129.7823 495.8523,-126.6382 496.0999,-133.6338"/>
<text text-anchor="start" x="54" y="-172" font-family="Helvetica,sans-Serif" font-size="10.00" fill="#000000">buttons_r(to_integer(unsigned(floor))) = &#39;0&#39; or ups_r(to_integer(unsigned(floor))) = &#39;0&#39; &#160;&#160;</text>
</g>
<!-- downing_state&#45;&gt;reached_a_floor -->
<g id="edge6" class="edge transition">
<title>downing_state&#45;&gt;reached_a_floor</title>
<path fill="none" stroke="#000000" d="M619.851,-52.3518C624.3888,-57.2361 628.5156,-62.8771 631,-69 635.0104,-78.884 636.6334,-83.9423 631,-93 628.5244,-96.9805 625.448,-100.5216 621.9749,-103.6698"/>
<polygon fill="#000000" stroke="#000000" points="619.6046,-101.0775 613.8171,-109.952 623.8756,-106.6236 619.6046,-101.0775"/>
<text text-anchor="start" x="634" y="-78" font-family="Helvetica,sans-Serif" font-size="10.00" fill="#000000">std_logic_vector(lowest_dest_s) = floor &#160;&#160;</text>
</g>
<!-- downing_state&#45;&gt;reached_a_floor -->
<g id="edge7" class="edge transition">
<title>downing_state&#45;&gt;reached_a_floor</title>
<path fill="none" stroke="#000000" d="M547.2444,-35.7073C424.6982,-40.1531 117.1274,-52.8713 102.099,-69 94.8274,-76.804 94.8496,-85.1754 102.099,-93 115.275,-107.2216 372.8319,-120.0396 495.7574,-125.3752"/>
<polygon fill="#000000" stroke="#000000" points="495.6557,-128.8739 505.797,-125.8073 495.9568,-121.8804 495.6557,-128.8739"/>
<text text-anchor="start" x="102" y="-78" font-family="Helvetica,sans-Serif" font-size="10.00" fill="#000000">buttons_r(to_integer(unsigned(floor))) = &#39;0&#39; or downs_r(to_integer(unsigned(floor))) = &#39;0&#39; &#160;&#160;</text>
</g>
<!-- reached_a_floor&#45;&gt;none_state -->
<g id="edge10" class="edge transition">
<title>reached_a_floor&#45;&gt;none_state</title>
<path fill="none" stroke="#000000" d="M614.1126,-132.0765C692.665,-138.7337 829,-153.3993 829,-175 829,-269 829,-269 829,-269 829,-285.8935 788.736,-298.7066 753.7299,-306.6541"/>
<polygon fill="#000000" stroke="#000000" points="752.589,-303.3203 743.5608,-308.8646 754.076,-310.1605 752.589,-303.3203"/>
<text text-anchor="start" x="829" y="-231" font-family="Helvetica,sans-Serif" font-size="10.00" fill="#000000">door_open = &#39;1&#39; &#160;&#160;</text>
<text text-anchor="start" x="829" y="-219" font-family="Helvetica,sans-Serif" font-size="10.00" fill="#000000">not (came_from_r = up) &#160;&#160;</text>
<text text-anchor="start" x="829" y="-207" font-family="Helvetica,sans-Serif" font-size="10.00" fill="#000000">not (came_from_r = down) &#160;&#160;</text>
</g>
<!-- reached_a_floor&#45;&gt;upping_state -->
<g id="edge8" class="edge transition">
<title>reached_a_floor&#45;&gt;upping_state</title>
<path fill="none" stroke="#000000" d="M505.7901,-142.8481C491.3572,-148.0511 476.1946,-154.7184 463.258,-163 455.4326,-168.0096 440.685,-182.9699 427.9865,-196.5714"/>
<polygon fill="#000000" stroke="#000000" points="425.4157,-194.1962 421.1995,-203.9161 430.5568,-198.947 425.4157,-194.1962"/>
<text text-anchor="start" x="463" y="-178" font-family="Helvetica,sans-Serif" font-size="10.00" fill="#000000">came_from_r = up &#160;&#160;</text>
<text text-anchor="start" x="463" y="-166" font-family="Helvetica,sans-Serif" font-size="10.00" fill="#000000">door_open = &#39;1&#39; &#160;&#160;</text>
</g>
<!-- reached_a_floor&#45;&gt;downing_state -->
<g id="edge9" class="edge transition">
<title>reached_a_floor&#45;&gt;downing_state</title>
<path fill="none" stroke="#000000" d="M535.4842,-109.9054C530.6089,-105.0105 526.1684,-99.3003 523.48,-93 519.2936,-83.1892 517.7848,-78.019 523.48,-69 527.2834,-62.9769 532.4381,-57.9689 538.2647,-53.8097"/>
<polygon fill="#000000" stroke="#000000" points="540.5242,-56.5286 547.2029,-48.304 536.8529,-50.5686 540.5242,-56.5286"/>
<text text-anchor="start" x="523" y="-84" font-family="Helvetica,sans-Serif" font-size="10.00" fill="#000000">came_from_r = down &#160;&#160;</text>
<text text-anchor="start" x="523" y="-72" font-family="Helvetica,sans-Serif" font-size="10.00" fill="#000000">door_open = &#39;1&#39; &#160;&#160;</text>
</g>
</g>
</svg>
