<?xml version="1.0" encoding="UTF-8" standalone="no"?>
<!DOCTYPE svg PUBLIC "-//W3C//DTD SVG 1.1//EN"
 "http://www.w3.org/Graphics/SVG/1.1/DTD/svg11.dtd">
<!-- Generated by graphviz version 2.40.1 (20161225.0304)
 -->
<!-- Title: state transitions Pages: 1 -->
<svg width="747pt" height="458pt"
 viewBox="0.00 0.00 747.00 458.00" xmlns="http://www.w3.org/2000/svg" xmlns:xlink="http://www.w3.org/1999/xlink">
<g id="graph0" class="graph" transform="scale(1 1) rotate(0) translate(4 454)">
<title>state transitions</title>
<polygon fill="#ffffff" stroke="transparent" points="-4,4 -4,-454 743,-454 743,4 -4,4"/>
<g id="clust1" class="cluster state regular">
<title>cluster_next_state</title>
<path fill="none" stroke="#000000" stroke-width="2" d="M20,-8C20,-8 719,-8 719,-8 725,-8 731,-14 731,-20 731,-20 731,-430 731,-430 731,-436 725,-442 719,-442 719,-442 20,-442 20,-442 14,-442 8,-436 8,-430 8,-430 8,-20 8,-20 8,-14 14,-8 20,-8"/>
<text text-anchor="start" x="342.3208" y="-423.2" font-family="Helvetica,sans-Serif" font-size="12.00" fill="#000000">next_state</text>
</g>
<!-- next_state -->
<!-- going_to_valid_place_state -->
<g id="node2" class="node state regular">
<title>going_to_valid_place_state</title>
<polygon fill="#ffffff" fill-opacity="0.003922" stroke="transparent" stroke-width="2" points="455.5,-404 288.5,-404 288.5,-368 455.5,-368 455.5,-404"/>
<text text-anchor="start" x="299.8058" y="-382.2" font-family="Helvetica,sans-Serif" font-size="12.00" fill="#000000">going_to_valid_place_state</text>
<path fill="none" stroke="#000000" stroke-width="2" d="M300.8333,-369C300.8333,-369 443.1667,-369 443.1667,-369 448.8333,-369 454.5,-374.6667 454.5,-380.3333 454.5,-380.3333 454.5,-391.6667 454.5,-391.6667 454.5,-397.3333 448.8333,-403 443.1667,-403 443.1667,-403 300.8333,-403 300.8333,-403 295.1667,-403 289.5,-397.3333 289.5,-391.6667 289.5,-391.6667 289.5,-380.3333 289.5,-380.3333 289.5,-374.6667 295.1667,-369 300.8333,-369"/>
</g>
<!-- not_working_state -->
<g id="node3" class="node state regular">
<title>not_working_state</title>
<polygon fill="#ffffff" fill-opacity="0.003922" stroke="transparent" stroke-width="2" points="431.5,-322 312.5,-322 312.5,-286 431.5,-286 431.5,-322"/>
<text text-anchor="start" x="323.819" y="-300.2" font-family="Helvetica,sans-Serif" font-size="12.00" fill="#000000">not_working_state</text>
<path fill="none" stroke="#000000" stroke-width="2" d="M324.8333,-287C324.8333,-287 419.1667,-287 419.1667,-287 424.8333,-287 430.5,-292.6667 430.5,-298.3333 430.5,-298.3333 430.5,-309.6667 430.5,-309.6667 430.5,-315.3333 424.8333,-321 419.1667,-321 419.1667,-321 324.8333,-321 324.8333,-321 319.1667,-321 313.5,-315.3333 313.5,-309.6667 313.5,-309.6667 313.5,-298.3333 313.5,-298.3333 313.5,-292.6667 319.1667,-287 324.8333,-287"/>
</g>
<!-- going_to_valid_place_state&#45;&gt;not_working_state -->
<g id="edge1" class="edge transition">
<title>going_to_valid_place_state&#45;&gt;not_working_state</title>
<path fill="none" stroke="#000000" d="M372,-367.8015C372,-357.3976 372,-344.1215 372,-332.3768"/>
<polygon fill="#000000" stroke="#000000" points="375.5001,-332.1476 372,-322.1476 368.5001,-332.1476 375.5001,-332.1476"/>
<text text-anchor="start" x="372" y="-342" font-family="Helvetica,sans-Serif" font-size="10.00" fill="#000000">roll_s = &#39;1&#39; &#160;&#160;</text>
</g>
<!-- go_up_state -->
<g id="node4" class="node state regular">
<title>go_up_state</title>
<polygon fill="#ffffff" fill-opacity="0.003922" stroke="transparent" stroke-width="2" points="334,-228 246,-228 246,-192 334,-192 334,-228"/>
<text text-anchor="start" x="256.982" y="-206.2" font-family="Helvetica,sans-Serif" font-size="12.00" fill="#000000">go_up_state</text>
<path fill="none" stroke="#000000" stroke-width="2" d="M258.3333,-193C258.3333,-193 321.6667,-193 321.6667,-193 327.3333,-193 333,-198.6667 333,-204.3333 333,-204.3333 333,-215.6667 333,-215.6667 333,-221.3333 327.3333,-227 321.6667,-227 321.6667,-227 258.3333,-227 258.3333,-227 252.6667,-227 247,-221.3333 247,-215.6667 247,-215.6667 247,-204.3333 247,-204.3333 247,-198.6667 252.6667,-193 258.3333,-193"/>
</g>
<!-- not_working_state&#45;&gt;go_up_state -->
<g id="edge3" class="edge transition">
<title>not_working_state&#45;&gt;go_up_state</title>
<path fill="none" stroke="#000000" d="M356.1896,-285.8759C343.8246,-271.7014 326.4691,-251.806 312.632,-235.944"/>
<polygon fill="#000000" stroke="#000000" points="314.9731,-233.3034 305.7619,-228.0685 309.6981,-237.905 314.9731,-233.3034"/>
<text text-anchor="start" x="341" y="-260" font-family="Helvetica,sans-Serif" font-size="10.00" fill="#000000">unsigned(req_i) &gt; (&#39;0&#39; &amp; floor_s) &#160;&#160;</text>
<text text-anchor="start" x="341" y="-248" font-family="Helvetica,sans-Serif" font-size="10.00" fill="#000000">req_i /= NONE_REQ &#160;&#160;</text>
</g>
<!-- go_down_state -->
<g id="node5" class="node state regular">
<title>go_down_state</title>
<polygon fill="#ffffff" fill-opacity="0.003922" stroke="transparent" stroke-width="2" points="490.5,-134 387.5,-134 387.5,-98 490.5,-98 490.5,-134"/>
<text text-anchor="start" x="398.8152" y="-112.2" font-family="Helvetica,sans-Serif" font-size="12.00" fill="#000000">go_down_state</text>
<path fill="none" stroke="#000000" stroke-width="2" d="M399.8333,-99C399.8333,-99 478.1667,-99 478.1667,-99 483.8333,-99 489.5,-104.6667 489.5,-110.3333 489.5,-110.3333 489.5,-121.6667 489.5,-121.6667 489.5,-127.3333 483.8333,-133 478.1667,-133 478.1667,-133 399.8333,-133 399.8333,-133 394.1667,-133 388.5,-127.3333 388.5,-121.6667 388.5,-121.6667 388.5,-110.3333 388.5,-110.3333 388.5,-104.6667 394.1667,-99 399.8333,-99"/>
</g>
<!-- not_working_state&#45;&gt;go_down_state -->
<g id="edge4" class="edge transition">
<title>not_working_state&#45;&gt;go_down_state</title>
<path fill="none" stroke="#000000" d="M431.6378,-292.4224C457.4754,-286.2916 483.8948,-278.1412 493,-269 518.1126,-243.7882 488.9995,-216.3549 514.944,-192 540.8302,-167.6998 570.7252,-202.6482 593,-175 621.5778,-139.5283 555.1551,-125.3585 500.7753,-119.7137"/>
<polygon fill="#000000" stroke="#000000" points="501.0756,-116.2265 490.7871,-118.7557 500.4072,-123.1946 501.0756,-116.2265"/>
<text text-anchor="start" x="514" y="-213" font-family="Helvetica,sans-Serif" font-size="10.00" fill="#000000">unsigned(req_i) &lt; (&#39;0&#39; &amp; floor_s) &#160;&#160;</text>
<text text-anchor="start" x="514" y="-201" font-family="Helvetica,sans-Serif" font-size="10.00" fill="#000000">req_i /= NONE_REQ &#160;&#160;</text>
</g>
<!-- door_open_state -->
<g id="node6" class="node state regular">
<title>door_open_state</title>
<polygon fill="#ffffff" fill-opacity="0.003922" stroke="transparent" stroke-width="2" points="334,-52 222,-52 222,-16 334,-16 334,-52"/>
<text text-anchor="start" x="232.9784" y="-30.2" font-family="Helvetica,sans-Serif" font-size="12.00" fill="#000000">door_open_state</text>
<path fill="none" stroke="#000000" stroke-width="2" d="M234.3333,-17C234.3333,-17 321.6667,-17 321.6667,-17 327.3333,-17 333,-22.6667 333,-28.3333 333,-28.3333 333,-39.6667 333,-39.6667 333,-45.3333 327.3333,-51 321.6667,-51 321.6667,-51 234.3333,-51 234.3333,-51 228.6667,-51 223,-45.3333 223,-39.6667 223,-39.6667 223,-28.3333 223,-28.3333 223,-22.6667 228.6667,-17 234.3333,-17"/>
</g>
<!-- not_working_state&#45;&gt;door_open_state -->
<g id="edge2" class="edge transition">
<title>not_working_state&#45;&gt;door_open_state</title>
<path fill="none" stroke="#000000" d="M312.2875,-301.5636C216.2173,-296.8356 38,-284.3756 38,-257 38,-257 38,-257 38,-75 38,-57.3233 140.4673,-45.2421 211.4952,-38.9911"/>
<polygon fill="#000000" stroke="#000000" points="212.0672,-42.4549 221.7307,-38.1111 211.4676,-35.4806 212.0672,-42.4549"/>
<text text-anchor="start" x="38" y="-166" font-family="Helvetica,sans-Serif" font-size="10.00" fill="#000000">unsigned(req_i) = (&#39;0&#39; &amp; floor_s) &#160;&#160;</text>
<text text-anchor="start" x="38" y="-154" font-family="Helvetica,sans-Serif" font-size="10.00" fill="#000000">req_i /= NONE_REQ &#160;&#160;</text>
</g>
<!-- go_up_state&#45;&gt;go_down_state -->
<g id="edge5" class="edge transition">
<title>go_up_state&#45;&gt;go_down_state</title>
<path fill="none" stroke="#000000" d="M275.8771,-191.7769C267.9173,-179.151 261.3155,-162.5925 270.944,-151 284.096,-135.1653 341.8556,-138.2328 362,-134 366.9941,-132.9506 372.1613,-131.8265 377.3461,-130.6715"/>
<polygon fill="#000000" stroke="#000000" points="378.3144,-134.041 387.2975,-128.4236 376.7721,-127.213 378.3144,-134.041"/>
<text text-anchor="start" x="270" y="-166" font-family="Helvetica,sans-Serif" font-size="10.00" fill="#000000">unsigned(req_i) &lt; (&#39;0&#39; &amp; floor_s) &#160;&#160;</text>
<text text-anchor="start" x="270" y="-154" font-family="Helvetica,sans-Serif" font-size="10.00" fill="#000000">roll_s = &#39;1&#39; &#160;&#160;</text>
</g>
<!-- go_up_state&#45;&gt;door_open_state -->
<g id="edge6" class="edge transition">
<title>go_up_state&#45;&gt;door_open_state</title>
<path fill="none" stroke="#000000" d="M245.7081,-200.8185C226.7979,-194.0566 209,-182.5101 209,-163 209,-163 209,-163 209,-75 209,-68.662 211.1782,-63.282 214.7605,-58.7195"/>
<polygon fill="#000000" stroke="#000000" points="217.1898,-61.2392 221.9784,-51.7882 212.3413,-56.1902 217.1898,-61.2392"/>
<text text-anchor="start" x="209" y="-113" font-family="Helvetica,sans-Serif" font-size="10.00" fill="#000000">unsigned(req_i) = (&#39;0&#39; &amp; floor_s) &#160;&#160;</text>
</g>
<!-- go_down_state&#45;&gt;go_up_state -->
<g id="edge7" class="edge transition">
<title>go_down_state&#45;&gt;go_up_state</title>
<path fill="none" stroke="#000000" d="M437.6751,-134.1342C435.7649,-147.2203 431.1421,-164.3861 420,-175 408.8625,-185.6095 374.8127,-194.5614 344.3553,-200.7557"/>
<polygon fill="#000000" stroke="#000000" points="343.3406,-197.388 334.2022,-202.749 344.6892,-204.2569 343.3406,-197.388"/>
<text text-anchor="start" x="433" y="-166" font-family="Helvetica,sans-Serif" font-size="10.00" fill="#000000">unsigned(req_i) &gt; ((&#39;0&#39; &amp; floor_s)) &#160;&#160;</text>
<text text-anchor="start" x="433" y="-154" font-family="Helvetica,sans-Serif" font-size="10.00" fill="#000000">roll_s = &#39;1&#39; &#160;&#160;</text>
</g>
<!-- go_down_state&#45;&gt;door_open_state -->
<g id="edge8" class="edge transition">
<title>go_down_state&#45;&gt;door_open_state</title>
<path fill="none" stroke="#000000" d="M403.2689,-97.8015C379.4241,-85.657 347.8952,-69.5988 322.4343,-56.6311"/>
<polygon fill="#000000" stroke="#000000" points="323.8532,-53.426 313.3539,-52.0063 320.6763,-59.6636 323.8532,-53.426"/>
<text text-anchor="start" x="369" y="-72" font-family="Helvetica,sans-Serif" font-size="10.00" fill="#000000">unsigned(req_i) = ((&#39;0&#39; &amp; floor_s)) &#160;&#160;</text>
</g>
<!-- door_open_state&#45;&gt;not_working_state -->
<g id="edge9" class="edge transition">
<title>door_open_state&#45;&gt;not_working_state</title>
<path fill="none" stroke="#000000" d="M334.0208,-37.0405C442.1358,-43.2826 669,-58.3631 669,-75 669,-257 669,-257 669,-257 669,-279.8796 529.7215,-293.464 441.9203,-299.7545"/>
<polygon fill="#000000" stroke="#000000" points="441.476,-296.277 431.7451,-300.4675 441.9653,-303.2598 441.476,-296.277"/>
<text text-anchor="start" x="669" y="-160" font-family="Helvetica,sans-Serif" font-size="10.00" fill="#000000">roll_s = &#39;1&#39; &#160;&#160;</text>
</g>
</g>
</svg>
